<svg width="24" height="26" viewBox="0 0 24 26" fill="none" xmlns="http://www.w3.org/2000/svg">
<path d="M8.95384 21.5758C3.41538 23.2879 3.41538 18.7223 1.2 18.1516M16.7077 25V20.5828C16.7492 20.0385 16.6779 19.4914 16.4984 18.9777C16.3188 18.4641 16.0352 17.9957 15.6665 17.6037C19.1446 17.2042 22.8 15.846 22.8 9.61392C22.7997 8.02032 22.2048 6.48785 21.1385 5.33366C21.6434 3.93945 21.6077 2.39838 21.0388 1.03058C21.0388 1.03058 19.7317 0.631091 16.7077 2.71986C14.1689 2.01084 11.4927 2.01084 8.95384 2.71986C5.92984 0.631091 4.62277 1.03058 4.62277 1.03058C4.05383 2.39838 4.01813 3.93945 4.52307 5.33366C3.44875 6.49641 2.85325 8.04274 2.86154 9.64816C2.86154 15.8346 6.51692 17.1928 9.99507 17.638C9.63064 18.026 9.34958 18.4888 9.17018 18.9961C8.99079 19.5035 8.91708 20.0441 8.95384 20.5828V25" stroke="#1F1F1F" stroke-width="1.5" stroke-linecap="round" stroke-linejoin="round"/>
</svg>
