<svg width="26" height="26" viewBox="0 0 26 26" fill="none" xmlns="http://www.w3.org/2000/svg">
<path d="M9.10479 24.4709C9.11105 23.5627 9.11105 22.6546 9.11731 21.7464C9.11731 20.9886 9.12357 20.237 9.12357 19.4792C9.12357 18.1389 9.12984 16.7924 9.12984 15.4521C9.12984 14.4813 9.1361 13.5168 9.1361 12.546C9.1361 11.5627 9.12984 10.5794 9.12357 9.59611C9.12357 9.43954 9.11731 9.28296 9.11105 9.12639C9.11105 9.08881 9.11105 9.04496 9.11105 9.00739C9.17994 8.9886 14.1528 8.98233 14.2593 9.00112C14.2593 9.70885 14.2593 10.4166 14.2593 11.1306C14.2655 11.1306 14.2718 11.1368 14.2781 11.1368C14.2969 11.1118 14.3156 11.0867 14.3344 11.0554C14.6163 10.6295 14.9357 10.2349 15.3177 9.89048C15.9252 9.33933 16.633 8.97607 17.4346 8.78192C18.0171 8.64413 18.6058 8.60029 19.2008 8.62534C19.7895 8.65039 20.3657 8.73808 20.9294 8.92597C22.3073 9.37691 23.3156 10.2663 23.9795 11.5564C24.2927 12.1702 24.4994 12.8216 24.6309 13.4917C24.6998 13.8425 24.7436 14.1932 24.7749 14.5502C24.7812 14.6191 24.7812 14.6942 24.7812 14.7631C24.7812 14.8007 24.7937 14.8383 24.8 14.8696C24.8 18.07 24.8 21.2642 24.8 24.4646C23.0902 24.4646 21.3741 24.4646 19.6643 24.4646C19.6643 24.4333 19.6643 24.402 19.6643 24.3706C19.6643 21.6337 19.6643 18.8905 19.6643 16.1535C19.6643 15.7652 19.6392 15.3769 19.5703 14.9886C19.5014 14.6066 19.395 14.2433 19.2133 13.8988C18.9753 13.4416 18.6309 13.0909 18.1486 12.8842C17.8668 12.7652 17.5724 12.7026 17.2655 12.6838C16.9461 12.665 16.6267 12.6901 16.3198 12.7715C15.7374 12.9281 15.2676 13.26 14.8981 13.736C14.6476 14.0617 14.4472 14.4187 14.347 14.8195C14.2781 15.1139 14.2593 15.4145 14.2593 15.7151C14.2593 18.5961 14.2593 21.4771 14.2593 24.3644C14.2593 24.3957 14.2593 24.427 14.2593 24.4583C12.5369 24.4709 10.8209 24.4709 9.10479 24.4709Z" stroke="#1F1F1F" stroke-width="1.2" stroke-miterlimit="10"/>
<path d="M1.11942 24.4709C1.11942 24.4334 1.11942 24.3895 1.11942 24.352C1.11942 19.2789 1.11942 14.2058 1.11942 9.13274C1.11942 9.0889 1.11942 9.04506 1.11942 9.00122C2.84175 9.00122 4.55157 9.00122 6.26764 9.00122C6.26764 9.05133 6.26764 9.09517 6.26764 9.13274C6.26764 11.757 6.26764 14.3812 6.26764 16.9991C6.26764 19.448 6.26764 21.9031 6.26764 24.352C6.26764 24.3895 6.2739 24.4334 6.2739 24.4709C4.55783 24.4709 2.83549 24.4709 1.11942 24.4709Z" stroke="#1F1F1F" stroke-width="1.2" stroke-miterlimit="10"/>
<path d="M4.02547 1.53556C4.11315 1.54809 4.19457 1.56061 4.28225 1.57314C4.78956 1.64829 5.25302 1.82992 5.64759 2.1556C6.1048 2.52512 6.38663 3.00111 6.52442 3.57105C6.66221 4.15978 6.63089 4.73598 6.38663 5.29339C6.07974 5.99485 5.54112 6.45205 4.82714 6.70884C4.4764 6.8341 4.11315 6.8842 3.74363 6.89046C3.23006 6.89673 2.73528 6.81531 2.27181 6.58358C1.48893 6.19527 1.0192 5.5627 0.856363 4.70466C0.837574 4.62324 0.818785 4.54182 0.799995 4.4604C0.799995 4.2913 0.799995 4.1222 0.799995 3.9531C0.818785 3.86541 0.837574 3.78399 0.856363 3.69631C0.975361 3.07001 1.27599 2.55017 1.77703 2.14934C2.19039 1.82366 2.66012 1.64203 3.17369 1.56688C3.25511 1.55435 3.33653 1.54182 3.41795 1.5293C3.62463 1.53556 3.82505 1.53556 4.02547 1.53556Z" stroke="#1F1F1F" stroke-width="1.2" stroke-miterlimit="10"/>
</svg>
